# xmcd
#
# Track frame offsets:
#	150
#	15897
#	33055
#	46335
#	60607
#	73835
#	87820
#	101365
#	119412
#	136332
#
# Disc length: 2081 seconds
#
# Revision: 1
# Processed by: cddbd v1.4PL0 Copyright (c) Steve Scherf et al.
# Submitted via: audiograbber 1.80.04
#
DISCID=76081f0a
DTITLE=Dan and Brian - Things With Strings
DYEAR=1993
DGENRE=
TTITLE0=Christmas In July
TTITLE1=Kicking At Your Door
TTITLE2=Stories We Could Tell
TTITLE3=Catfish John
TTITLE4=Lemon Tree Waltz
TTITLE5=Good Tobaccy
TTITLE6=Fit For A King
TTITLE7=Happy Till She Met You
TTITLE8=Biggest Fool Of All
TTITLE9=The Yeehaa Stick
EXTD=<C> Dan/Brian Productions 
EXTT0=
EXTT1=
EXTT2=
EXTT3=
EXTT4=
EXTT5=
EXTT6=
EXTT7=
EXTT8=
EXTT9=
PLAYORDER=
